<svg xmlns="http://www.w3.org/2000/svg" viewBox="0 0 100.07 100">
    <path fill="1a1a1a" d="M96.34,24.74c4.89-4.4,5-7.37.12-11.48l-.13-.11h0l0,0a3.7,3.7,0,0,1-.28-.28L94.19,11l4.52-4.51a3.81,3.81,0,0,0,0-5.38h0a3.81,3.81,0,0,0-5.38,0l-4.5,4.51L86.35,3.13l-.06-.06c-.21-.21-.44-.43-.7-.7s-.58-.59-.89-.86a4.93,4.93,0,0,0-7,0,37.4,37.4,0,0,0-3.49,3.52c-1.09,1.32-2.1,1.27-3.57.59A48.83,48.83,0,0,0,36.16,2.8C10.8,9.69-5,36.75,1.45,62.2a49.6,49.6,0,0,0,61.71,36c28.54-7.81,43.9-40.16,32-67.27C93.58,27.43,93.48,27.31,96.34,24.74ZM55.88,20.23a9.08,9.08,0,0,1-4,.57c-12.63-.62-23.7,5.78-29.07,17A30.42,30.42,0,0,0,20,53.62c.28,3.69-2.12,6.05-5.6,5.68A4.85,4.85,0,0,1,10.11,55c-.23-1.49-.2-3-.29-4.53A39.88,39.88,0,0,1,53.1,10.83c2.8.26,4.72,1.72,5.19,4A4.72,4.72,0,0,1,55.88,20.23Z"/>
</svg>
