<svg xmlns="http://www.w3.org/2000/svg" viewBox="0 0 96.09 98.38">
    <path fill="#333" d="M96.09,40.09A17.11,17.11,0,0,0,74.53,23.53a14.71,14.71,0,1,0-28-7.68,16.77,16.77,0,0,0-4.93-1.54A17.54,17.54,0,1,0,12.31,32.83a9.77,9.77,0,0,0-3,16.62A13,13,0,0,0,13,74.94a12.36,12.36,0,0,0,1.73-.13,10.55,10.55,0,0,0-1.64,5.64,10.68,10.68,0,0,0,20.74,3.61,10.39,10.39,0,0,0,3.54,2,12.23,12.23,0,0,0,24.07,1.5A19.52,19.52,0,0,0,86.41,68.76a19.43,19.43,0,0,0-4-11.86A17.16,17.16,0,0,0,96.09,40.09Z"/>
    <path fill="#fe0101" d="M89.89,80.72c-.22.09-.37-.08-.53-.16l-26-12-.45-.19L60,92.76,46.67,73c-6.21,8.45-12.39,16.85-18.62,25.34.07-1.31.13-2.53.2-3.74l.36-6.21c.14-2.53.29-5.07.43-7.6s.31-5.16.46-7.74c.11-2,.21-3.94.35-5.92,0-.45-.05-.49-.48-.4Q17.17,69.23,5,71.66l-.45.1.38-.51q7.59-10,15.19-19.9a.57.57,0,0,0,0-.77Q14,40.5,7.79,30.39c-.1-.16-.2-.33-.34-.58l18,3.45L10.79.06,10.87,0l3.54,2.71Q27.54,12.77,40.67,22.83c.52.4.51.4.69-.21q3-10.55,5.92-21.07c0-.08,0-.17.16-.22L48,2.72q4,10.2,8,20.4c.17.43.26.44.6.15q11.58-10,23.2-20.07c.11-.1.2-.27.49-.23l-13,26.83,20.79-.74c-.75,1-1.46,1.85-2.18,2.75q-5.51,6.92-11,13.82c-.27.34-.24.47.11.69q8.52,5.49,17,11a1.22,1.22,0,0,1,.43.4l-21.33.37,2.36,2.83,16.14,19.4c.1.12.24.22.27.4ZM20.6,12.34l0,0h0l.05,0a1,1,0,0,0,.16.61l3.09,7q3.74,8.4,7.46,16.82c.05.11.19.23.08.35s-.25,0-.38,0l-10.5-2L18,34.64c.1.17.13.25.17.31q4.53,7.39,9.05,14.78c.55.91.61.6-.1,1.54q-5.28,6.9-10.53,13.81a3.37,3.37,0,0,0-.68,1l.43-.09L27.86,63.7l6.55-1.33c.23,0,.43-.08.4.28q-.2,2.81-.36,5.61-.21,3.43-.4,6.89c-.11,2.11-.17,4.23-.33,6.35-.06.76,0,1.54-.14,2.31a19.59,19.59,0,0,0,0,2.17l3-4.15L47,67.59c.37-.5.38-.5.72,0l9.38,13.86c.08.13.13.29.28.34.21-1.7.43-3.39.63-5.09.25-2.07.48-4.14.72-6.21s.53-4.3.77-6.45c.05-.45.2-.47.56-.3,1.06.5,2.13,1,3.19,1.47L78.6,72.31c.38.18.77.34,1.15.5l.07-.09-14-16.88,16-.26a.38.38,0,0,0-.23-.29l-6.47-4.17L68.71,47c-.2-.13-.33-.22-.12-.49q4.47-5.58,8.92-11.19a6.45,6.45,0,0,0,.9-1.21,9.64,9.64,0,0,0-1.87.05c-1.78,0-3.55.11-5.32.18-2.58.11-5.17.16-7.75.23-.53,0-.55,0-.31-.51q2.15-4.44,4.3-8.89Q70,20,72.45,14.87a.67.67,0,0,0,.13-.46l0,0s0,0,0,0l0,0-.2.14-6.68,5.78Q60.3,25,54.9,29.69c-.31.27-.38.21-.52-.14q-2.9-7.49-5.84-15A4.32,4.32,0,0,0,48,13.29c-.07.21-.13.36-.17.51q-2.19,7.75-4.36,15.5c-.09.3-.17.35-.45.14-1.73-1.35-3.46-2.67-5.2-4L25.71,16.21C24,14.91,22.3,13.63,20.6,12.34Z"/>
    <path fill="#fe7f00" d="M72.58,14.41a.67.67,0,0,1-.13.46Q70,20,67.46,25.18q-2.16,4.44-4.3,8.89c-.24.5-.22.53.31.51,2.58-.07,5.17-.12,7.75-.23,1.77-.07,3.54-.16,5.32-.18a9.64,9.64,0,0,1,1.87-.05,6.45,6.45,0,0,1-.9,1.21q-4.44,5.61-8.92,11.19c-.21.27-.08.36.12.49l6.34,4.11,6.47,4.17a.38.38,0,0,1,.23.29l-16,.26,14,16.88-.07.09c-.38-.16-.77-.32-1.15-.5L63.29,65.22c-1.06-.5-2.13-1-3.19-1.47-.36-.17-.51-.15-.56.3-.24,2.15-.52,4.3-.77,6.45s-.47,4.14-.72,6.21c-.2,1.7-.42,3.39-.63,5.09-.15,0-.2-.21-.28-.34L47.76,67.6c-.34-.51-.35-.51-.72,0L36.6,81.83l-3,4.15a19.59,19.59,0,0,1,0-2.17c.09-.77.08-1.55.14-2.31.16-2.12.22-4.24.33-6.35q.2-3.45.4-6.89.16-2.81.36-5.61c0-.36-.17-.33-.4-.28L27.86,63.7,16.33,66l-.43.09a3.37,3.37,0,0,1,.68-1q5.25-6.91,10.53-13.81c.71-.94.65-.63.1-1.54q-4.52-7.4-9-14.78c0-.06-.07-.14-.17-.31l2.53.48,10.5,2c.13,0,.29.08.38,0s0-.24-.08-.35q-3.72-8.41-7.46-16.82l-3.09-7a1,1,0,0,1-.16-.61h0c1.7,1.29,3.41,2.57,5.11,3.87l12.07,9.23c1.74,1.33,3.47,2.65,5.2,4,.28.21.36.16.45-.14q2.18-7.76,4.36-15.5c0-.15.1-.3.17-.51a4.32,4.32,0,0,1,.58,1.29q2.94,7.49,5.84,15c.14.35.21.41.52.14q5.39-4.7,10.81-9.36l6.68-5.78.2-.14ZM68.34,63.72s0,0,0,0,0,0,0,0l0,0Q64.65,59.29,61,54.84l-1.64-2c3.5,0,6.89-.17,10.4-.1a2.25,2.25,0,0,0-.24-.2c-2.69-1.75-5.38-3.5-8.08-5.22-.34-.22-.33-.36-.1-.65,1.73-2.16,3.45-4.31,5.16-6.48a7.06,7.06,0,0,0,1-1.29L65.1,39c-2.36.11-4.73.15-7.09.24-.43,0-.47-.09-.29-.46q2.41-4.92,4.79-9.86c.4-.84.79-1.69,1.18-2.54l0,0s0,0,0,0l0,0c-.14,0-.21.08-.3.15Q58,31.23,52.51,35.94c-.32.27-.42.23-.57-.14-.87-2.28-1.77-4.56-2.66-6.84l-1.37-3.52-3,10.62-.43-.3-8.92-6.84L30.39,25s0,0,0,0h0l.05,0a1.17,1.17,0,0,0,.18.66Q33.41,32,36.23,38.38q.54,1.21,1.08,2.46l-.15,0c-2-.37-3.93-.76-5.89-1.12a16.06,16.06,0,0,0-2.57-.44l0,0,0,0a4.5,4.5,0,0,0,.23.43q2.85,4.68,5.73,9.34a.48.48,0,0,1,0,.65q-3.53,4.57-7,9.17c-.1.12-.29.26-.19.41s.3,0,.46,0l11.18-2.25c.32-.07.37,0,.35.29q-.15,2-.27,3.93c-.11,2.08-.17,4.17-.33,6.25-.06.77,0,1.54-.14,2.31a21.82,21.82,0,0,0,0,2.29c.08,0,.12-.13.18-.22q4.18-5.7,8.37-11.42c.3-.41.4-.3.62,0q2.57,3.81,5.14,7.6c.3.45.62.89,1,1.4L55.4,57.83l.26.1c3.7,1.71,7.39,3.44,11.1,5.14A5.73,5.73,0,0,0,68.34,63.72Z"/>
    <path fill="#fefd00" d="M30.39,25l5.18,3.93,8.92,6.84.43.3,3-10.62L49.28,29c.89,2.28,1.79,4.56,2.66,6.84.15.37.25.41.57.14q5.43-4.72,10.89-9.42c.09-.07.16-.16.3-.15h0c-.39.85-.78,1.7-1.18,2.54q-2.38,4.94-4.79,9.86c-.18.37-.14.47.29.46,2.36-.09,4.73-.13,7.09-.24l2.33-.07a7.06,7.06,0,0,1-1,1.29c-1.71,2.17-3.43,4.32-5.16,6.48-.23.29-.24.43.1.65,2.7,1.72,5.39,3.47,8.08,5.22a2.25,2.25,0,0,1,.24.2c-3.51-.07-6.9.12-10.4.1l1.64,2q3.68,4.45,7.36,8.89h0a5.73,5.73,0,0,1-1.58-.65c-3.71-1.7-7.4-3.43-11.1-5.14l-.26-.1L54,69.55c-.36-.51-.68-1-1-1.4q-2.57-3.8-5.14-7.6c-.22-.34-.32-.45-.62,0q-4.17,5.73-8.37,11.42c-.06.09-.1.21-.18.22a21.82,21.82,0,0,1,0-2.29c.09-.77.08-1.54.14-2.31.16-2.08.22-4.17.33-6.25q.12-2,.27-3.93c0-.29,0-.36-.35-.29L27.93,59.33c-.16,0-.37.14-.46,0s.09-.29.19-.41q3.49-4.59,7-9.17a.48.48,0,0,0,0-.65q-2.88-4.67-5.73-9.34a4.5,4.5,0,0,1-.23-.43h0a16.06,16.06,0,0,1,2.57.44c2,.36,3.92.75,5.89,1.12l.15,0q-.54-1.25-1.08-2.46Q33.4,32,30.57,25.64a1.17,1.17,0,0,1-.18-.66Z"/>
</svg>
