<svg xmlns="http://www.w3.org/2000/svg" viewBox="0 0 200 200"><defs><style>.cls-1{isolation:isolate;}.cls-2{fill:#151210;}.cls-10,.cls-12,.cls-15,.cls-19,.cls-3{fill:#7b604a;}.cls-3{stroke:#4c3a27;}.cls-20,.cls-3,.cls-4{stroke-linecap:round;stroke-linejoin:round;}.cls-13,.cls-14,.cls-17,.cls-4{fill:#62473a;}.cls-4{stroke:#402c1f;}.cls-5{fill:#402c1f;}.cls-6,.cls-7,.cls-8{fill:#3f2f27;}.cls-6{stroke:#2b1f18;}.cls-16,.cls-6{stroke-miterlimit:10;}.cls-11,.cls-12,.cls-13,.cls-15,.cls-25,.cls-27,.cls-7{opacity:0.5;}.cls-11,.cls-12,.cls-13,.cls-17,.cls-19,.cls-22,.cls-27,.cls-7,.cls-9{mix-blend-mode:multiply;}.cls-9{opacity:0.7;}.cls-15,.cls-23,.cls-25,.cls-26{mix-blend-mode:screen;}.cls-16,.cls-23,.cls-27{fill:#262629;}.cls-16{stroke:#171716;}.cls-18{fill:#4c3a27;}.cls-20,.cls-21,.cls-22,.cls-25,.cls-26{fill:#3b2515;}.cls-20{stroke:#2b160d;}.cls-24{fill:#2b160d;}</style></defs><g class="cls-1"><g id="Calque_2" data-name="Calque 2"><g id="Layer_1" data-name="Layer 1"><rect class="cls-2" width="200" height="200"/><path class="cls-3" d="M143.66,182.53c0-6.66.68-10.89.34-16.54s-1.37-4.64-1-12.1.69-19.57.69-23.6-.69-11.5-1.72-20.58S144.68,94,145,88.33s-1.37-28.84-1.5-39.22c0-2.94,0-5.74,0-8.23C143.2,42.73,143,44,143,44L141,18H100.92a13,13,0,0,0-.9,5c0,4.69,0,11.71-.11,14.58s.73,18.13-.3,25.24-1,7.72-.51,13,1.28,12.1,1,17.7-.26,14.52-.26,21,0,6.21.51,9.53a18.06,18.06,0,0,1-.88,5.72c.51,4.09.78,8.28,1.23,13.46a53.8,53.8,0,0,1,0,8c.46,3.81,1,8.5,1,10.27,0,3.18-.41,10.88.21,14.55s-.62,9.77-.83,12.59a3.8,3.8,0,0,1-.52,1.55c-.1,2.62-.22,5.32-.33,7.53l.47.61,1.71-.11,3-5,1.92,6.22h10.86c1.08-2.61,3.19-7.71,3.19-7.46s1.59,5,2.39,7.46h9.05l.35-14.5,6,14.5h4.19C142.35,194.62,143.66,188.34,143.66,182.53Z"/><path class="cls-3" d="M177.24,18H148.31c-.47,1.74-1.06,4.07-1.57,6.56-.73,3.57-2.31,11.8-3.18,16.29-.05,2.49-.07,5.29,0,8.23.13,10.38,1.84,33.57,1.5,39.22l0,.32c.47,1.59,1,3.27,1.4,4.93,1.71,6.45-.34,13.11,0,19.36s-1.72,14.72-1.72,19.36a12.44,12.44,0,0,1-1.13,4.6c-.13,5.28-.36,12.12-.58,17-.34,7.46.69,6.45,1,12.1s-.34,9.88-.34,16.54c0,5.81-1.31,12.09-.27,16.94h8.74l.84-12.82,5.14,11.07,2.85-.11,3.23-5.37.95,5.48,5.13-1.68.95-8.61,2.66,6.26,2.09-7.6,2.68-.92Z"/><path class="cls-3" d="M56.94,170.43c0-5.65,1-21.18,1-27.84s-.68-11.29-1-23.6,0-15.13,0-22.19S56.26,81.07,58,67c.75-6.19,1.44-15.39,2-23.79C59.57,39,58.16,23.06,57.74,18H24L21,199.47h3.35l8.86-1.64L35.5,192l.57,6.16h8l1.14-14.43,2.09,13.42,9.69.67.49-12.9C56.7,180,56.94,175.22,56.94,170.43Z"/><path class="cls-3" d="M98.7,166.84c.51-4.18,2.79-14.78,2-23.58s-1-14.79-2.79-22.25-3-11.5-4.06-15.82,1.77-9.56,2.28-14.93.51-14,.51-18.22,1.52-5.22,1.77-18.51c.21-10.76-.16-29-.31-35.5H65.38a41.87,41.87,0,0,1-2.95,8.78C60,31.65,60,44.16,60,44.16s0-.37-.09-1c-.53,8.4-1.22,17.6-2,23.79-.38,3.15-.64,6-.82,8.67A56.7,56.7,0,0,0,58,83.09c1.37,6.65,0,13.11,1.71,18s-.34,7.26-1.37,10.89a25,25,0,0,1-1.45,3.51c0,1.09,0,2.27.08,3.55.35,12.31,1,16.94,1,23.6s-1,22.19-1,27.84c0,4.79-.24,9.59.53,14.5l.08-2.2s5.89,5.59,7.61,7.72,3.42,4.81,3.42,4.81l6.08.11,2.85-10.52L80,197.16l4.94.67,3-8.61,2.09,7.27,9.69.67.48.62c.22-4.44.5-10.85.5-14.66C100.73,176.85,98.19,171,98.7,166.84Z"/><polygon class="cls-4" points="4.8 199.47 21.01 199.47 24.04 18.04 7.61 7.45 4.8 199.47"/><polygon class="cls-4" points="193.55 7.45 177.24 18.04 178.77 199.47 195.74 199.47 194.36 7.45 193.55 7.45"/><polygon class="cls-4" points="7.61 7.45 24.04 18.04 177.24 18.04 193.55 7.45 7.61 7.45"/><path class="cls-5" d="M182.32,90.1c-.32-4.91.69-9.8.3-14.7,0-.08-.2,0-.21.08-1.13,9.28-.83,18.34-.4,27.64,0,.36,1-.12,1-.36C183.13,98.54,182.6,94.31,182.32,90.1Z"/><path class="cls-5" d="M186.72,104.1c-.09-3.88.29-7.94-.66-11.78-.05-.2-.52.08-.5.21,1.2,7.24-1.12,14.67-.05,21.92.05.37.91-.14.94-.33A61,61,0,0,0,186.72,104.1Z"/><path class="cls-5" d="M15.13,52.73c.07-.32-.64,0-.69.2A26.36,26.36,0,0,0,16,70.81c.2.42,1.17-.17,1.06-.46C14.87,64.76,13.89,58.44,15.13,52.73Z"/><path class="cls-5" d="M10.23,43c0-.18-.49.06-.49.18a181.83,181.83,0,0,0,.53,21.89c0,.3.8-.11.81-.29C11.59,57.59,10.57,50.27,10.23,43Z"/><path class="cls-5" d="M183.75,22c0-.26-.69.1-.67.28.22,2.69,1.39,5.17,1.11,7.89a43.49,43.49,0,0,0-.58,5.9c0,.36.95-.13,1-.35.22-2.24.49-4.49.63-6.74S184,24.38,183.75,22Z"/><path class="cls-5" d="M188.86,20.43c0-.22-.6.06-.61.21-.19,6.42-1,12.89-.56,19.3,0,.4,1-.13,1.05-.37C189.22,33.21,189,26.8,188.86,20.43Z"/><path class="cls-5" d="M70.22,13.8c-6-.15-11.9,0-17.85-.31-5.61-.32-11.06.58-16.62.91-.12,0-.31.21-.15.21,5.44.12,10.73-.75,16.18-.42,6,.36,12,.36,18,.21C70.16,14.39,70.67,13.82,70.22,13.8Z"/><path class="cls-5" d="M80.83,12.61a212.23,212.23,0,0,0-22.42-.1c-.2,0-.54.34-.25.36,7.31.38,14.86.36,22.19.3C80.72,13.17,81.3,12.64,80.83,12.61Z"/><path class="cls-5" d="M129.16,12.81c-4.74-.38-9.49-.84-14.26-1-4.2-.17-8.39.67-12.55.1-.26,0-.64.33-.33.39,3.45.6,7,.15,10.52.11,5.42-.06,10.74.89,16.14,1C129.05,13.38,129.62,12.85,129.16,12.81Z"/><path class="cls-5" d="M12.74,115.56c0-4.17.17-8.37.5-12.53a155.79,155.79,0,0,0,.19-25.19c0-.17-.45.07-.44.19,1.21,17.07-3,34,.09,51.07.06.36.89-.16.88-.38C13.82,124.32,12.75,120,12.74,115.56Z"/><path class="cls-5" d="M16.92,114.14c0-.17-.49.06-.5.18-.46,18.38-2.7,36.77-2.85,55.15,0,.5,1,0,1.06-.3A444,444,0,0,0,16.92,114.14Z"/><path class="cls-5" d="M11.76,140.21c0-.22-.44,0-.46.12a234.42,234.42,0,0,0-1.79,45.84c0,.35.94-.12,1-.34C11.17,170.61,10,155.42,11.76,140.21Z"/><path class="cls-5" d="M192.77,154.75c-.67-4.39-1.4-8.79-1.75-13.19-.74-9.62-.75-19.26-.86-28.89,0-.21-.46,0-.46.13-.12,9.38-.15,18.76.24,28.14.19,4.41,1,8.8,1.47,13.2.52,4.81.54,9.71,1.59,14.5.09.4,1.09-.17,1.05-.45C193.33,163.72,193.46,159.22,192.77,154.75Z"/><path class="cls-5" d="M186.62,130.77c0-.23-.61.09-.58.25a202.37,202.37,0,0,1,1.48,27.38c0,8.34-.83,16.74-.18,25.07,0,.39,1-.14,1.06-.38A232.61,232.61,0,0,0,186.62,130.77Z"/><path class="cls-5" d="M14.36,18.27c0-.25-.52,0-.52.14-.1,8.88-.23,17.77-.12,26.66,0,.36.76,0,.76-.21C14.59,36,14.46,27.13,14.36,18.27Z"/><path class="cls-5" d="M19.09,34c.1-.33-.66,0-.73.2-1.47,4.72-1.16,9.49-1.17,14.26s.13,10,2.11,14.58c.16.36.95-.16.9-.39C18.32,53.34,16.37,43.24,19.09,34Z"/><path class="cls-5" d="M122.65,10.87C107.34,10.24,92.42,9.41,77,9.62c-8.5.12-17,0-25.45-.06a90,90,0,0,0-9.16.36c-3.72.36-7,1.31-10.89.67-.23,0-.57.29-.29.35A21.64,21.64,0,0,0,38,11c3.79-.39,7.13-.74,11-.78,7.84-.08,15.69.26,23.54.19s15.78-.27,23.66,0c8.63.25,17.17,1.07,25.82,1.16C122.54,11.55,123.19,10.9,122.65,10.87Z"/><path class="cls-5" d="M179.13,13.6c-15,1.3-29.72,1.22-44.89,1.05-6.49-.07-13,0-19.45.12-6.73.1-14.53-.46-21,.75-.16,0-.38.3-.14.26,6.39-1,14.11-.26,20.71-.33,7.09-.07,14.16-.13,21.25,0,14.25.2,29.37,1,43.27-1.28C179.16,14.09,179.67,13.56,179.13,13.6Z"/><path class="cls-5" d="M183.65,9.84c-11.46.48-22.83.85-34.34,1-.24,0-.56.35-.29.35,11.36.12,23.12.38,34.36-.8C183.71,10.32,184.17,9.82,183.65,9.84Z"/><path class="cls-6" d="M146.4,112.94c-.34-6.25,1.71-12.91,0-19.36-.44-1.66-.93-3.34-1.4-4.93-.46,5.58-4.07,12.16-3.06,21.06,1,9.08,1.72,16.54,1.72,20.58,0,1.4,0,3.78-.11,6.61a12.44,12.44,0,0,0,1.13-4.6C144.68,127.66,146.74,119.19,146.4,112.94Z"/><path class="cls-6" d="M59.68,101c-1.71-4.84-.34-11.3-1.71-18a56.7,56.7,0,0,1-.82-7.47c-.62,9.23-.21,15.7-.21,21.18,0,6.33-.27,9.26-.08,18.64a25,25,0,0,0,1.45-3.51C59.34,108.3,61.4,105.88,59.68,101Z"/><path class="cls-6" d="M118.23,199.47h5.58c-.8-2.42-2.39-7.2-2.39-7.46S119.31,196.86,118.23,199.47Z"/><path class="cls-6" d="M62.43,26.81A41.87,41.87,0,0,0,65.38,18H57.74C58.22,23.82,60,44.16,60,44.16S60,31.65,62.43,26.81Z"/><path class="cls-6" d="M146.74,24.59c.51-2.49,1.1-4.82,1.57-6.56H141L143,44S145.71,29.63,146.74,24.59Z"/><path class="cls-6" d="M102.41,198.28l-1.71.11-1-1.23-9.69-.67L88,189.22l-3,8.61L80,197.16l-2.47-12.31-2.85,10.52-6.08-.11s-1.71-2.69-3.42-4.81-7.61-7.72-7.61-7.72L57,197.83l-9.69-.67L45.2,183.74l-1.14,14.43h-8L35.5,192l-2.28,5.82-8.86,1.64h83l-1.92-6.22Z"/><polygon class="cls-6" points="178.65 185.17 175.97 186.09 173.88 193.69 171.22 187.43 170.27 196.04 165.14 197.72 164.19 192.24 160.96 197.61 158.11 197.72 152.97 186.65 152.13 199.47 178.77 199.47 178.65 185.17"/><polygon class="cls-6" points="132.86 199.47 139.2 199.47 133.21 184.97 132.86 199.47"/><path class="cls-6" d="M100.38,124.08c-.51-3.32-.51-3-.51-9.53s0-15.43.26-21-.52-12.41-1-17.7-.52-5.9.51-13,.18-22.36.3-25.24S100,27.68,100,23a13,13,0,0,1,.9-5H98.13c.15,6.53.52,24.74.31,35.5C98.19,66.82,96.67,67.86,96.67,72s0,12.84-.51,18.22-3.3,10.6-2.28,14.93,2.28,8.36,4.06,15.82a80.68,80.68,0,0,1,1.56,8.79A18.06,18.06,0,0,0,100.38,124.08Z"/><path class="cls-6" d="M101.91,176.11c-.62-3.67-.21-11.37-.21-14.55,0-1.77-.51-6.46-1-10.27-.43,6.46-1.67,12.6-2,15.55-.51,4.18,2,10,2,16.28,0,1.91-.07,4.49-.17,7.13a3.8,3.8,0,0,0,.52-1.55C101.29,185.88,102.54,179.77,101.91,176.11Z"/><path class="cls-7" d="M101.91,176.11c-.62-3.67-.21-11.37-.21-14.55,0-1.77-.51-6.46-1-10.27-.43,6.46-1.67,12.6-2,15.55-.51,4.18,2,10,2,16.28,0,1.91-.07,4.49-.17,7.13a3.8,3.8,0,0,0,.52-1.55C101.29,185.88,102.54,179.77,101.91,176.11Zm-1.22-2.05a26.12,26.12,0,0,0-.63-4c-.52-1.83.22-5.31.22-5.31a15.86,15.86,0,0,1,.3,4.22,32.64,32.64,0,0,0,.11,5.06c.07.82.11,1.42.11,1.42S100.75,174.89,100.69,174.06Z"/><path class="cls-8" d="M100.8,175.48s0-.6-.11-1.42C100.75,174.89,100.8,175.48,100.8,175.48Z"/><g class="cls-9"><path class="cls-10" d="M59.94,43.16C59.57,39,58.16,23.06,57.74,18H50.51a76.86,76.86,0,0,0,.63,13.25c1.55,11.56-1.55,44.72,0,59.92s1,81.52,1,81.52l-7.24-.3V126.18l-9.82,60.53-7.24.31s-3.1-38.33-.51-53.54S25.3,96.07,28.4,83c2.63-11.09.8-52.62.18-65H24L21,199.47h3.35l8.86-1.64L35.5,192l.57,6.16h8l1.14-14.43,2.09,13.42,9.69.67.49-12.9c-.77-4.91-.53-9.71-.53-14.5,0-5.65,1-21.18,1-27.84s-.68-11.29-1-23.6,0-15.13,0-22.19S56.26,81.07,58,67C58.72,60.76,59.41,51.56,59.94,43.16Z"/></g><g class="cls-11"><path class="cls-10" d="M98.7,166.84c.51-4.18,2.79-14.78,2-23.58s-1-14.79-2.79-22.25-3-11.5-4.06-15.82,1.77-9.56,2.28-14.93.51-14,.51-18.22,1.52-5.22,1.77-18.51c.21-10.76-.16-29-.31-35.5H91.25c0,4.58,0,10.2.2,15.08.52,10.34,2.07,33.15,1,42.58s-6.72,21-4.69,29.41S93,121,93.52,133.79s1.55,48.66,1.55,48.66l-9.82,1.83-3.1-72.39-2.58,65.39-5.69.31-4.65-20.38-1.55,27.07-5.69-3s0-6.39.52-15.52-2.58-43.79,2.59-53.22S67.16,107,63,95.16s2.58-43.5,2.07-53.53c-.38-7.23,4.34-18.08,7-23.6H65.38a41.87,41.87,0,0,1-2.95,8.78C60,31.65,60,44.16,60,44.16s0-.37-.09-1c-.53,8.4-1.22,17.6-2,23.79-.38,3.15-.64,6-.82,8.67A56.7,56.7,0,0,0,58,83.09c1.37,6.65,0,13.11,1.71,18s-.34,7.26-1.37,10.89a25,25,0,0,1-1.45,3.51c0,1.09,0,2.27.08,3.55.35,12.31,1,16.94,1,23.6s-1,22.19-1,27.84c0,4.79-.24,9.59.53,14.5l.08-2.2s5.89,5.59,7.61,7.72,3.42,4.81,3.42,4.81l6.08.11,2.85-10.52L80,197.16l4.94.67,3-8.61,2.09,7.27,9.69.67.48.62c.22-4.44.5-10.85.5-14.66C100.73,176.85,98.19,171,98.7,166.84Z"/></g><path class="cls-3" d="M127.13,119.31a1.13,1.13,0,0,0,0-.12A1.13,1.13,0,0,1,127.13,119.31Z"/><path class="cls-12" d="M143.53,49.11c0-2.94,0-5.74,0-8.23C143.2,42.73,143,44,143,44L141,18H119.26l-.93,51.27,6.2-47.14h9.82s0,13.69,4.14,25.85,3.61,30.72,2.58,40.15-8.27,17-4.14,32.85,4.66,60.23,4.66,60.23l-5.17,2.43S133.83,170.9,132.8,163c-1-7.65-5.38-41.44-5.67-43.68.13,1,1.05,8.75,1.53,25.43.52,17.94,0,45.62,0,45.62l-4.13.91-5.69-28,1,21.29-7.24.31s-4.13-89.43-4.13-102.51a372.06,372.06,0,0,0-3.1-42.88c-1-7.7.45-16.46,1.56-21.47h-6a13,13,0,0,0-.9,5c0,4.69,0,11.71-.11,14.58s.73,18.13-.3,25.24-1,7.72-.51,13,1.28,12.1,1,17.7-.26,14.52-.26,21,0,6.21.51,9.53a18.06,18.06,0,0,1-.88,5.72c.51,4.09.78,8.28,1.23,13.46a53.8,53.8,0,0,1,0,8c.46,3.81,1,8.5,1,10.27,0,3.18-.41,10.88.21,14.55s-.62,9.77-.83,12.59a3.8,3.8,0,0,1-.52,1.55c-.1,2.62-.22,5.32-.33,7.53l.47.61,1.71-.11,3-5,1.92,6.22h10.86c1.08-2.61,3.19-7.71,3.19-7.46s1.59,5,2.39,7.46h9.05l.35-14.5,6,14.5h4.19c-1-4.85.27-11.13.27-16.94,0-6.66.68-10.89.34-16.54s-1.37-4.64-1-12.1.69-19.57.69-23.6-.69-11.5-1.72-20.58S144.68,94,145,88.33,143.66,59.49,143.53,49.11Z"/><g class="cls-9"><path class="cls-10" d="M177.24,18H175c-.23,5.15-.74,12.82-1.87,21.77-2.07,16.43,0,26.77,0,37.41s-.51,29.51-.51,29.51-.52-10.35-2.07-14.6-3.69-24.93-3.69-24.93c-2.14,11.26,1.62,39.53,4.72,59.3s2.07,53.83,2.07,53.83L163.29,184s-4.65-32.24-4.65-33.15-3.1,31.94-3.1,31.94h-7.75s1.55-10.95.51-17.64,3.62-28.9,4.14-37.72-2.07-24.64-1-42.28-1-40.76.08-51.08a66.77,66.77,0,0,1,3.79-16h-7c-.47,1.74-1.06,4.07-1.57,6.56-.73,3.57-2.31,11.8-3.18,16.29-.05,2.49-.07,5.29,0,8.23.13,10.38,1.84,33.57,1.5,39.22l0,.32c.47,1.59,1,3.27,1.4,4.93,1.71,6.45-.34,13.11,0,19.36s-1.72,14.72-1.72,19.36a12.44,12.44,0,0,1-1.13,4.6c-.13,5.28-.36,12.12-.58,17-.34,7.46.69,6.45,1,12.1s-.34,9.88-.34,16.54c0,5.81-1.31,12.09-.27,16.94h8.74l.84-12.82,5.14,11.07,2.85-.11,3.23-5.37.95,5.48,5.13-1.68.95-8.61,2.66,6.26,2.09-7.6,2.68-.92Z"/></g><path class="cls-4" d="M11.7,148.64c-.17-.3-.34,2.36-.5,6.52C11.65,151.59,11.89,149,11.7,148.64Z"/><path class="cls-13" d="M7.6,7.44l-.08,5.94,4.86,3.34L16,70.81l1.9-40,2.74,1.21s-.68,59.71-1.37,79.07-.69,81.9-.69,81.9l-8.22.4s.38-25.83.87-38.26c-1.15,9-3.61,24.14-3.61,24.14l-2.49-.06-.3,20.23H21L24,18Z"/><g class="cls-11"><path class="cls-14" d="M189.41,105.48l3.09.9,1,44.18-2.12,3.58-4.79-23.37,2.28,58.82-4.63.3L180.16,23.78,183.75,22l4.63,23.54.52-28.75,5.5-2.91,0-6.47h-.81L177.24,18l1.53,181.44h17L194.91,83.7c-3.67,1.07-7.55,2.11-7.55,2.11Z"/></g><path class="cls-15" d="M32.51,23.57s.78,45.65-1.59,59.62-2.37,72.66-2.37,72.66l5.22-3.91L42,108.34l7.12,35.87-.79-109-7.91-.93L34.75,98S39.63,28.7,32.51,23.57Z"/><rect class="cls-16" x="189.19" y="38.51" width="5.38" height="28.19"/><rect class="cls-16" x="189.82" y="152.52" width="5.38" height="28.19"/><path class="cls-15" d="M75.28,22.57s-8.74,10.9-5.14,23.91S67.57,67.66,66,77.64s1.54,13.92,5.14,23-.52,11.8-3.09,19.06,6.69,49,6.69,49l3.59-1.21.52-66.86L82.48,133l7.71-.3s-3.09-16-5.14-24.51S83,77,83.51,70.08s2,13.61,2,13.61L89.67,74l-.51-50.23L83,27.11s-8.74,58.7-8.22,57.79,4.62-62,4.62-62Z"/><path class="cls-15" d="M110.24,23.18s1,40.84,2.06,53.55,2,99.25,2,99.25l3.62-.26s2-38.17,1.52-37S124.12,179,124.12,179l3.08-.3s-.51-46.9-2-68.68c4.11,20.57,7.71,31.46,7.71,31.46l5.14-.3s-3.6-20.88-5.14-28.44,2.57-16.95,5.14-24.81-5.65-47.51-6.68-53.86l-5.14-.6s1.54,30.86,4.62,43.87-6.68,26.32-6.68,26.32-8.23-16.94-6.68-31.16-1.9-49.62-1.9-49.62Z"/><g class="cls-11"><path class="cls-14" d="M7.6,7.44l5.76,3.72C26.7,10.46,56.5,9,67.9,9.38c14.88.48,101,.24,101,.24v2.13l-62.76-.24,34.19,2.37L139.9,16l-118.66.22L24,18h153.2L193.55,7.44Z"/></g><path class="cls-15" d="M156.51,27.72c.51.9-2.06,13.91-.51,37.82s2.57,49.32.51,58.09-4.63,23.6-4.63,23.6l-2,16H155l6.68-36.61,2.57,46.89,6.17-.9s-1.54-41.45-4.63-62.33-4.62-35.71,2.57-50.23c.52,9.08,1.55,20.58,1.55,20.58L173,23.78l-8.74.31-2.8,30-1.31-26.36Z"/><polygon class="cls-17" points="21.01 199.47 24.04 18.04 177.24 18.04 178.77 199.47 175.15 199.43 171.49 20.47 29 20.25 24.36 199.47 21.01 199.47"/><g class="cls-11"><path class="cls-18" d="M35.4,154.55c-.39-3.52-1.13-7.89-3.94-11.09-.15-.17-.54,0-.68.07-1.86,1.09-2.41,2.68-3,4.14a46.33,46.33,0,0,0-2.23,9.27c-.53,3-1.2,6,.07,9s5.06,5,7.75,7.43c.12.1.43-.12.34-.21-1.62-1.75-3.6-3.31-5.46-5-2.39-2.12-2.63-4.89-2.37-7.33a81.15,81.15,0,0,1,2.56-12.37,14.61,14.61,0,0,1,1.36-3.12c1.19-2.22,2,.87,2.15,1.41a40.05,40.05,0,0,1,1.81,5.16c.47,2.17.62,4.36.93,6.54.37,2.64,1.25,5.48.12,8.09-1.73-2.07-1.94-4.58-2.57-6.82-1.1-3.9-.53-7.7-.41-11.63,0-.56-1.2,0-1.21.34-.1,3.64-.64,7.13.18,10.76.62,2.78.92,6.16,3.49,8.61.33.32,1-.23,1.08-.39C38,163.51,35.85,158.63,35.4,154.55Z"/><path class="cls-18" d="M40.14,144.27c-1.72-3.53-2.09-7.25-3.82-10.74-.08-.16-.44.06-.4.17,1.24,3.34,1.44,6.77,2.74,10.14,1.57,4,3.07,7.46,2.89,11.69-.15,3.6-.9,7.17-1.3,10.76-.35,3.22-1.75,6.57-1.58,9.77,0,.42,1-.17,1.08-.38a128.77,128.77,0,0,0,3.17-21.61C43.05,150.58,41.77,147.6,40.14,144.27Z"/><path class="cls-18" d="M46.11,162.44c-.75,6.15-2.58,12.37-2.21,18.57,0,.33.87-.12.89-.32.71-6.11,1.54-12.29,1.91-18.41C46.71,162,46.13,162.28,46.11,162.44Z"/><path class="cls-18" d="M32.82,188.81c-2.6-3.19-2.62-6.39-3.88-9.78-.08-.21-.6.09-.55.24,1,3.19.2,7.21,3.84,9.89C32.47,189.34,33,189,32.82,188.81Z"/><path class="cls-18" d="M67.14,173.86c0-3.11.46-6.18.5-9.27,0-.16-.31,0-.32.08-.65,7-2.67,14.22,1.09,21.05.13.23.79-.21.74-.38A40.74,40.74,0,0,1,67.14,173.86Z"/><path class="cls-18" d="M70.31,170.61c0-.24-.51,0-.52.14,0,1.17,0,2.34,0,3.52,0,.18.49-.06.5-.18C70.35,172.93,70.32,171.77,70.31,170.61Z"/><path class="cls-18" d="M82.08,161.85c0-.19-.4,0-.41.11a218.47,218.47,0,0,0,0,31c0,.37,1-.13,1-.35C83.61,182.42,82,172.08,82.08,161.85Z"/><path class="cls-18" d="M87.5,171.19c0-.17-.45.05-.46.16-.12,3.46-.69,6.94-.44,10.4,0,.31.82-.11.83-.29A97.73,97.73,0,0,0,87.5,171.19Z"/><path class="cls-18" d="M111.5,176.56c-.33-4.27,1-8.55-.35-12.79-.05-.18-.49.08-.46.2,1.86,7.9-2.52,16.11,2.15,23.9.15.26.89-.24.83-.43A47.06,47.06,0,0,1,111.5,176.56Z"/><path class="cls-18" d="M117.5,168.23c0-.29-.81.09-.81.29a51.82,51.82,0,0,0,.56,7.46c0,.28.7-.1.72-.26C118.22,173.23,117.58,170.73,117.5,168.23Z"/><path class="cls-18" d="M131.35,164.28c0-.09-.25,0-.23.1,1,4.77.26,9.78.61,14.59,0,.2.54-.07.55-.2A45.65,45.65,0,0,0,131.35,164.28Z"/><path class="cls-18" d="M154.33,167.56c0-.17-.46.07-.44.19,1,5.58-.88,11.36,1.38,16.86.13.31.81-.13.76-.33C154.62,178.72,155.55,173.12,154.33,167.56Z"/><path class="cls-18" d="M160.81,171.36c0-.26-.55,0-.55.15,0,2.24-.14,4.48,0,6.72,0,.22.61-.08.62-.22C161,175.79,160.84,173.57,160.81,171.36Z"/><path class="cls-18" d="M75.18,116.87c0-.18-.49,0-.49.17,0,3.64-.4,7.27.23,10.9.7,4,.15,8.42,2,12.34.14.3.74-.14.72-.31Q76.32,128.4,75.18,116.87Z"/><path class="cls-18" d="M86.3,120.62c0-.22-.62.07-.62.22-.05,2.37-.63,5,0,7.31.07.26.59-.1.62-.22C86.84,125.56,86.35,123,86.3,120.62Z"/><path class="cls-18" d="M75,106.11c0-.2-.56.07-.56.2-.09,2.55-.51,5.11-.38,7.66,0,.29.79-.1.8-.28C75,111.17,75,108.63,75,106.11Z"/><path class="cls-18" d="M68.5,117c-.07-.2-.53.08-.49.21,1.39,5.07-.31,10.66,2.71,15.54.15.24.8-.21.75-.38C69.93,127.3,70.2,122.07,68.5,117Z"/><path class="cls-18" d="M70.82,88.09A127.33,127.33,0,0,0,70,72.73c0-.14-.34,0-.33.14.41,10.91-.53,21.89.49,32.8,0,.33.87-.12.89-.31C71.49,99.62,70.88,93.83,70.82,88.09Z"/><path class="cls-18" d="M83.6,65.31c0-.13-.36,0-.36.13A101.63,101.63,0,0,0,84.48,85.2c1.11,6.77,1.11,13.6,2.27,20.35.07.41,1.07-.18,1-.45C86.74,91.82,84.13,78.6,83.6,65.31Z"/><path class="cls-18" d="M111,99.48c-.26-4.48-.9-9-1.37-13.44-.45-4.27.24-8.82-1.1-13,0-.12-.33.06-.32.14.75,4-.08,8.16.28,12.18q.6,6.77,1.26,13.52c.92,9.2.4,18.51,2,27.67.06.34.88-.11.88-.31C112.64,117.33,111.49,108.38,111,99.48Z"/><path class="cls-18" d="M115.1,117.44c0-.24-.66.1-.64.28.42,2.94.08,6,1,8.94.1.3.72-.14.71-.31A60,60,0,0,0,115.1,117.44Z"/><path class="cls-18" d="M128.37,117.82c0-.21-.43,0-.44.12-.57,5.85,1.75,11.42.07,17.3-.1.35.71,0,.79-.15C131,129.17,128.2,123.72,128.37,117.82Z"/><path class="cls-18" d="M125,132.87c-.1-1.45.34-2.92-.22-4.35-.07-.18-.5.08-.46.2.73,2.71-1.43,5.69.94,8.27.19.21.71-.2.66-.35A14,14,0,0,1,125,132.87Z"/><path class="cls-18" d="M127.07,114.05c-3.64-7-8.34-13.71-9.68-21-1.64-8.93,4.37-17.17,7.61-25.71.08-.21-.33-.08-.39,0-3.8,7.92-9.23,15.62-8.62,24,.58,8,5.23,15.78,10.18,23.13C126.35,114.79,127.19,114.27,127.07,114.05Z"/><path class="cls-18" d="M131.7,82.53a1.64,1.64,0,0,0-2.61-1.33c-2.48,1.49-2.13,4.58-1.89,6.46,0,.34.84-.12.87-.31a12,12,0,0,0,.17-2.07l.12-1q-.65-2.87,2.25-1.26c.46,1.9-.13,4.22-.32,6.14-.21,2.2-.73,4.39-1,6.59-.28,2-.08,4.14-.76,6.13-1.65-1.25-1.89-3.24-2.33-4.71-.64-2.13-1.19-4.26-1.69-6.41a16.12,16.12,0,0,1-.15-8.13c.75-2.78,3-5.23,4.54-7.87.13-.21-.32-.07-.4.05-3.54,5.29-6.47,9.48-5.3,15.31.55,2.72,1.32,5.43,2.13,8.13.46,1.55.86,3.6,3,4.72.34.18.85-.26.92-.4,1.6-3.29,1.26-7.14,1.73-10.53A48.22,48.22,0,0,0,131.7,82.53Z"/><path class="cls-18" d="M135.5,87.79c-.36-3.41-1.63-6.84-2.51-10.22-.74-2.85-2.54-5.57-2.62-8.47,0-.13-.33,0-.34.12a15.92,15.92,0,0,0,1.49,6.67c1.29,3.36,1.72,6.9,2.51,10.31,1.66,7.14-4,13.35-4.82,20.32-.06.46.89,0,1-.27C131.93,100.08,136.17,94.12,135.5,87.79Z"/><path class="cls-18" d="M136.91,95.1c-1.09,4.19-1.77,8.41-2.54,12.62-.71,3.89-2.36,7.71-2.3,11.65,0,.42.87,0,.89-.25.34-3.92,1.53-7.76,2.34-11.65.86-4.16,1.22-8.34,2.07-12.5C137.42,94.76,137,95,136.91,95.1Z"/><path class="cls-18" d="M139.23,89.62c-.09-.22-.62.09-.57.25,1.22,3.92.1,8.57-.39,12.54-.05.4.78,0,.83-.22a26.66,26.66,0,0,0,.54-6.47C139.62,93.67,140,91.63,139.23,89.62Z"/><path class="cls-18" d="M152.57,95.52c-.6-4.78-.23-9.58-.27-14.36,0-4.57-.7-9.14.78-13.65,0-.14-.29,0-.33.06-1.63,4.22-1.35,8.49-1.29,12.78.07,4.46-.23,8.92,0,13.39.49,10.14,1,20.34,1.73,30.48,0,.32.84-.11.85-.3C154.61,114.52,153.73,104.89,152.57,95.52Z"/><path class="cls-18" d="M157.53,97.13c0-.12-.33,0-.33.12-.2,7.82-.33,15.69.18,23.5,0,.24.65-.08.66-.24C158.5,112.74,157.77,104.91,157.53,97.13Z"/><path class="cls-18" d="M163.41,131.41c0-.16-.42.05-.43.15a42.65,42.65,0,0,0,.51,8c0,.3.76-.1.78-.27C164.5,136.65,163.66,134,163.41,131.41Z"/><path class="cls-18" d="M167.89,104.42c-.6-6.25-.85-12.5-1.39-18.74s1-12.38.59-18.58c0-.09-.25,0-.25.09,0,5.52-1.55,11-1.39,16.53.18,6.27.38,12.58,1,18.85,1.2,12.69,2.85,25.34,3.4,38.05,0,.41,1.12-.13,1.13-.4C171.33,128.29,169,116.32,167.89,104.42Z"/><path class="cls-18" d="M41.94,62.14a70.92,70.92,0,0,1,.37-19.3c0-.16-.31,0-.33.1a69.11,69.11,0,0,0-1.33,17.37c.08,3.07.82,6.13.94,9.2s-.3,5.88.1,8.8c0,.36.89-.13.91-.32C43.31,72.7,42.68,67.4,41.94,62.14Z"/><path class="cls-18" d="M46.78,65.64c-.22,3.21-.89,6.47-.36,9.68,0,.29.72-.11.74-.26a73.85,73.85,0,0,0,.38-9.63C47.55,65.07,46.8,65.42,46.78,65.64Z"/><path class="cls-18" d="M73,20.24c-.1-.2-.57.09-.51.23.9,2.09.22,4.29.16,6.42s-.45,4.51-.35,6.77c0,.33.88-.11.9-.32.19-2.55.31-5.1.31-7.65C73.47,23.82,73.9,22.06,73,20.24Z"/><path class="cls-18" d="M75.7,25.69c-.08-.19-.54.08-.5.22.92,2.75.43,5.51.64,8.29,0,.22.58-.08.59-.21A18.61,18.61,0,0,0,75.7,25.69Z"/><path class="cls-18" d="M85,25.09c0-.2-.51.06-.51.18a145.43,145.43,0,0,0,.12,18.08c0,.36.94-.12,1-.33C85.89,37.06,85.34,31,85,25.09Z"/><path class="cls-18" d="M108.9,21.68c-.06-.16-.44.06-.41.17,1.77,5.61,1.23,11.41,2.84,17,.1.36.94-.15.9-.38C111.28,33,110.91,27.1,108.9,21.68Z"/><path class="cls-18" d="M115.54,22.88c0-.31-.66,0-.67.19-.08,4-.59,8-.38,12,0,.28.75-.09.76-.27C115.5,30.82,115.58,26.84,115.54,22.88Z"/><path class="cls-18" d="M152.56,20.05c-.15,4.64-1.6,9.35-1.08,14,0,.32.79-.11.81-.28a104.63,104.63,0,0,0,1-13.9C153.26,19.53,152.57,19.85,152.56,20.05Z"/><path class="cls-18" d="M159.12,21.2c0-.29-.78.12-.76.33.21,2.95-.42,5.88-.42,8.83,0,.43.9,0,.91-.25C159,27.14,159.44,24.18,159.12,21.2Z"/><path class="cls-18" d="M172,20.2c-.09-.16-.59.14-.53.27.77,1.94-.33,4.19-.64,6.16a27.9,27.9,0,0,0-.55,6.62c0,.33.85-.12.87-.31.26-2.48.37-5,.67-7.46C172.06,23.7,173,21.94,172,20.2Z"/></g><g class="cls-11"><path class="cls-8" d="M36.33,199l8.91-.07a42.11,42.11,0,0,1,.25-4.3c.12.29,2,3.71,2,3.71L59,198.29,59.35,188s6.94,7.14,8.42,8.74c6.44.36,8.3.36,8.3.36l1.36-3.86,2.1,4.74,5.7.51,2.1-3.72,2.48,2.7,8.54.65,1.24,1.33h7.78l-1.92-6.22-3,5-1.71.11-1-1.23-9.69-.67L88,189.22l-3,8.61L80,197.16l-2.47-12.31-2.85,10.52-6.08-.11s-1.71-2.69-3.42-4.81-7.61-7.72-7.61-7.72L57,197.83l-9.69-.67L45.2,183.74l-1.14,14.43h-8L35.5,192l-2.28,5.82-8.86,1.64h8.52l1.46-1Z"/></g><g class="cls-11"><path class="cls-8" d="M122,199.47h1.82c-.8-2.42-2.39-7.2-2.39-7.46s-2.11,4.85-3.19,7.46H120l1-2S121.53,198.57,122,199.47Z"/></g><path class="cls-6" d="M134.63,194.21s0,.07,0,.15Q134.66,194.18,134.63,194.21Z"/><path class="cls-7" d="M134.66,194.36c0-.08,0-.14,0-.15s0,0,0,.15c.21.62,1.4,3.06,2.41,5.11h2.13l-6-14.5-.35,14.5h1.75C134.67,197.73,134.71,195,134.66,194.36Z"/><g class="cls-11"><path class="cls-8" d="M154.57,194.5a39,39,0,0,0,3,4.08l4.21.07s1.48-2.26,1.48-2a12.51,12.51,0,0,0,1.61,2l6.81-1.53.87-3.21,1.13,5.48h5.12l-.12-14.3-2.68.92-2.09,7.6-2.66-6.26-.95,8.61-5.13,1.68-.95-5.48L161,197.61l-2.85.11L153,186.65l-.84,12.82h2.16C154.4,197.39,154.57,194.26,154.57,194.5Z"/></g><g class="cls-11"><path class="cls-8" d="M62.87,18,60.73,25.4S60,20.82,59.7,18h-2C58.22,23.82,60,44.16,60,44.16s0-12.51,2.4-17.35A41.87,41.87,0,0,0,65.38,18Z"/></g><g class="cls-11"><path class="cls-8" d="M146.75,18,143.8,29.49,143.43,18H141L143,44s2.74-14.32,3.77-19.36c.51-2.49,1.1-4.82,1.57-6.56Z"/></g><g class="cls-11"><path class="cls-8" d="M99.87,114.55c0-6.5,0-15.43.26-21s-.52-12.41-1-17.7-.52-5.9.51-13,.18-22.36.3-25.24S100,27.68,100,23a13,13,0,0,1,.9-5H98.13c.15,6.53.52,24.74.31,35.5C98.19,66.82,96.67,67.86,96.67,72s0,12.84-.51,18.22-3.3,10.6-2.28,14.93,2.28,8.36,4.06,15.82a80.68,80.68,0,0,1,1.56,8.79,18.06,18.06,0,0,0,.88-5.72C99.87,120.76,99.87,121.06,99.87,114.55ZM98.29,101.7c-.68,2.52-.17,11.37-.17,11.37a74.32,74.32,0,0,0-1.71-7.24c-1-3.42-.86-3.73.34-7a40,40,0,0,0,1.71-7.25A16.75,16.75,0,0,1,98.29,101.7Z"/></g><g class="cls-11"><path class="cls-8" d="M146.4,93.58c-.44-1.66-.93-3.34-1.4-4.93-.46,5.58-4.07,12.16-3.06,21.06,1,9.08,1.72,16.54,1.72,20.58,0,1.4,0,3.78-.11,6.61a12.44,12.44,0,0,0,1.13-4.6c0-4.64,2.06-13.11,1.72-19.36S148.11,100,146.4,93.58Zm-1.06,17.24c-.13,2.37-.91,8.71-.91,8.71s-.26-4-.52-6.19,0-4.74-.26-7.34a10.67,10.67,0,0,1,1.17-5.27S145.47,108.45,145.34,110.82Z"/></g><polygon class="cls-19" points="101.56 137.32 94.57 145.68 101.56 154.26 177.81 154.26 177.81 137.32 101.56 137.32"/><polygon class="cls-20" points="176.57 152.82 100.32 152.82 93.33 144.24 100.32 135.88 176.57 135.88 176.57 152.82"/><g class="cls-11"><polygon class="cls-21" points="100.32 135.88 98.71 137.81 167.02 137.41 167.46 141.74 118.57 140.19 174.55 145.19 174.33 150.59 101.78 149.09 93.81 144.83 100.32 152.82 176.57 152.82 176.57 135.88 100.32 135.88"/></g><ellipse class="cls-22" cx="111.44" cy="145.59" rx="2.46" ry="2.45"/><ellipse class="cls-16" cx="110.84" cy="144.69" rx="2.46" ry="2.45"/><path class="cls-23" d="M111.11,142.86a2,2,0,0,0-1.92,2.25A1.59,1.59,0,0,1,111.11,142.86Z"/><ellipse class="cls-22" cx="140.81" cy="145.59" rx="2.46" ry="2.45"/><ellipse class="cls-16" cx="140.21" cy="144.69" rx="2.46" ry="2.45"/><path class="cls-23" d="M140.48,142.86a2,2,0,0,0-1.92,2.25A1.59,1.59,0,0,1,140.48,142.86Z"/><ellipse class="cls-22" cx="166.28" cy="145.59" rx="2.46" ry="2.45"/><ellipse class="cls-16" cx="165.68" cy="144.69" rx="2.46" ry="2.45"/><path class="cls-23" d="M166,142.86a2,2,0,0,0-1.91,2.25A1.59,1.59,0,0,1,166,142.86Z"/><path class="cls-24" d="M126.92,144.34c.21.07.58-.48.36-.59a18.56,18.56,0,0,0-2.1-.92c.29-1.07.59-2.14.94-3.19.1-.3-.26-.11-.32.06-.37,1-.73,2-1.07,3l-.86-.32a5.73,5.73,0,0,0,.59-2.74c0-.12-.18,0-.19.11a7.82,7.82,0,0,1-.69,2.52,16.66,16.66,0,0,1-1.88-.85c-.23-.13-.61.41-.39.54a20.71,20.71,0,0,0,2,1l0,.09c-.14.4-.29.8-.44,1.2-.57-.18-1.13-.37-1.69-.58-.16-.06-.42.36-.26.43.58.24,1.16.47,1.75.68a21,21,0,0,0-.81,2.55c-.07.31.26.11.32-.06.3-.78.59-1.56.86-2.36l1,.34c-.31,1.08-.57,2.18-.77,3.27-.07.36.4,0,.45-.15.3-1,.58-2,.84-2.94.77.26,1.54.52,2.31.8.19.07.51-.44.32-.53a21.27,21.27,0,0,0-2.46-.9c.11-.38.21-.76.31-1.14C125.61,143.89,126.26,144.12,126.92,144.34Zm-3.73,0c.14-.42.29-.84.42-1.26l.86.37c-.12.39-.24.78-.35,1.17Z"/><path class="cls-24" d="M156.15,142a14.69,14.69,0,0,0-2.2-.4,7.7,7.7,0,0,0,.29-2.55c0-.07-.09,0-.1.06a15.55,15.55,0,0,1-.51,2.44l-.67-.12-.92-.19.42-1.79c.06-.32-.3-.14-.34.06-.13.55-.29,1.1-.45,1.65-.61-.12-1.22-.25-1.84-.35-.14,0-.35.31-.18.35.63.16,1.25.35,1.87.54-.2.65-.4,1.3-.59,1.95l-1.38-.3c-.21-.05-.5.44-.26.51l1.47.37a19.29,19.29,0,0,0-.79,4.13c0,.26.29,0,.32-.1.36-1.29.69-2.59,1-3.89l1.72.43c-.13.69-.25,1.38-.38,2.07-.06.29.36.05.39-.13.13-.61.25-1.23.35-1.85.49.12,1,.23,1.46.36.24.06.58-.5.3-.59-.54-.18-1.09-.32-1.64-.46.07-.48.15-1,.22-1.46,0-.15.05-.3.08-.45a10.45,10.45,0,0,0,2.09.23C156.08,142.46,156.43,142,156.15,142Zm-4.71,1.76c.16-.65.32-1.3.47-2,.52.16,1.05.3,1.58.42a.43.43,0,0,0,0,.11c-.1.59-.22,1.19-.33,1.78C152.58,143.94,152,143.82,151.44,143.71Z"/><polygon class="cls-25" points="95.63 142.74 100.32 138.71 161.19 137.64 101.38 139.98 95.63 142.74"/><polygon class="cls-19" points="101.56 63.2 94.57 71.57 101.56 80.15 177.81 80.15 177.81 63.2 101.56 63.2"/><polygon class="cls-20" points="176.57 78.71 100.32 78.71 93.33 70.13 100.32 61.76 176.57 61.76 176.57 78.71"/><g class="cls-11"><polygon class="cls-21" points="100.32 61.76 98.71 63.69 167.02 63.3 167.46 67.62 118.57 66.07 174.55 71.07 174.33 76.47 101.78 74.97 93.81 70.71 100.32 78.71 176.57 78.71 176.57 61.76 100.32 61.76"/></g><ellipse class="cls-22" cx="111.44" cy="71.47" rx="2.46" ry="2.45"/><ellipse class="cls-16" cx="110.84" cy="70.57" rx="2.46" ry="2.45"/><path class="cls-23" d="M111.11,68.75A2,2,0,0,0,109.19,71,1.58,1.58,0,0,1,111.11,68.75Z"/><ellipse class="cls-22" cx="140.81" cy="71.47" rx="2.46" ry="2.45"/><ellipse class="cls-16" cx="140.21" cy="70.57" rx="2.46" ry="2.45"/><path class="cls-23" d="M140.48,68.75A2,2,0,0,0,138.56,71,1.58,1.58,0,0,1,140.48,68.75Z"/><ellipse class="cls-22" cx="166.28" cy="71.47" rx="2.46" ry="2.45"/><ellipse class="cls-16" cx="165.68" cy="70.57" rx="2.46" ry="2.45"/><path class="cls-23" d="M166,68.75A2,2,0,0,0,164,71,1.58,1.58,0,0,1,166,68.75Z"/><path class="cls-24" d="M126.92,70.22c.21.07.58-.47.36-.59a18.56,18.56,0,0,0-2.1-.92c.29-1.07.59-2.13.94-3.19.1-.29-.26-.11-.32.06-.37,1-.73,2-1.07,3l-.86-.32a5.73,5.73,0,0,0,.59-2.74c0-.12-.18,0-.19.11a7.75,7.75,0,0,1-.69,2.52,16.66,16.66,0,0,1-1.88-.85c-.23-.13-.61.42-.39.55.64.37,1.31.7,2,1l0,.09c-.14.4-.29.79-.44,1.19-.57-.18-1.13-.36-1.69-.58-.16-.06-.42.36-.26.43.58.25,1.16.47,1.75.68a20.57,20.57,0,0,0-.81,2.56c-.07.3.26.1.32-.06.3-.78.59-1.57.86-2.36l1,.33c-.31,1.09-.57,2.18-.77,3.28-.07.35.4,0,.45-.15.3-1,.58-2,.84-2.95l2.31.8c.19.07.51-.44.32-.53a21.27,21.27,0,0,0-2.46-.9c.11-.38.21-.76.31-1.14C125.61,69.77,126.26,70,126.92,70.22Zm-3.73,0c.14-.42.29-.83.42-1.25l.86.36c-.12.39-.24.78-.35,1.17Z"/><path class="cls-24" d="M156.15,67.83a17.76,17.76,0,0,0-2.2-.4,7.7,7.7,0,0,0,.29-2.55c0-.07-.09,0-.1.06a15.55,15.55,0,0,1-.51,2.44l-.67-.11-.92-.2.42-1.79c.06-.32-.3-.13-.34.06-.13.55-.29,1.1-.45,1.66-.61-.13-1.22-.26-1.84-.36-.14,0-.35.31-.18.36.63.16,1.25.35,1.87.53-.2.65-.4,1.3-.59,2q-.69-.14-1.38-.3c-.21,0-.5.45-.26.51l1.47.37a19.29,19.29,0,0,0-.79,4.13c0,.26.29,0,.32-.1.36-1.28.69-2.59,1-3.89l1.72.43c-.13.69-.25,1.38-.38,2.08-.06.29.36,0,.39-.13.13-.62.25-1.24.35-1.86.49.12,1,.23,1.46.36.24.06.58-.49.3-.59-.54-.18-1.09-.32-1.64-.45.07-.49.15-1,.22-1.47,0-.15.05-.29.08-.44a10.44,10.44,0,0,0,2.09.22C156.08,68.35,156.43,67.91,156.15,67.83Zm-4.71,1.76c.16-.65.32-1.3.47-1.94.52.15,1.05.3,1.58.41a.43.43,0,0,0,0,.11c-.1.59-.22,1.19-.33,1.78C152.58,69.83,152,69.7,151.44,69.59Z"/><polygon class="cls-25" points="95.63 68.62 100.32 64.59 161.19 63.53 101.38 65.86 95.63 68.62"/><path class="cls-19" d="M71.54,108.11a15.52,15.52,0,0,0-9.81-14.39V82.46H50.94v11a15.46,15.46,0,0,0,0,29.26V129H61.73V122.5A15.53,15.53,0,0,0,71.54,108.11Z"/><rect class="cls-20" x="50.94" y="83.11" width="10.79" height="46.51"/><polygon class="cls-26" points="52.42 116.62 52.19 84.4 59.95 84.32 53.13 85.57 52.42 116.62"/><g class="cls-11"><polygon class="cls-21" points="60.84 83.11 59.85 126.67 50.94 128.39 50.94 129.62 61.73 129.62 61.73 83.11 60.84 83.11"/></g><path class="cls-16" d="M56,124.26a15.5,15.5,0,1,1,15.54-15.49A15.53,15.53,0,0,1,56,124.26Zm0-27.15a11.66,11.66,0,1,0,11.68,11.66A11.68,11.68,0,0,0,56,97.11Z"/><path class="cls-27" d="M56,122.42a15.52,15.52,0,0,1-15.48-14.57c0,.3-.05.61-.05.92a15.54,15.54,0,0,0,31.07,0c0-.31,0-.62-.05-.92A15.52,15.52,0,0,1,56,122.42Z"/><path class="cls-23" d="M42.07,107.41s.4-8,10.54-11.69C46.68,95.46,41.28,101.37,42.07,107.41Z"/><rect class="cls-20" x="53.76" y="89.07" width="5.14" height="11.25"/><polygon class="cls-26" points="54.67 96.94 54.58 89.85 57.83 89.84 54.97 90.11 54.67 96.94"/><g class="cls-11"><polygon class="cls-21" points="58.2 89.57 57.78 99.14 54.06 99.52 54.06 99.79 58.57 99.79 58.57 89.57 58.2 89.57"/></g></g></g></g></svg>