<svg xmlns="http://www.w3.org/2000/svg" viewBox="0 0 93.75 100">
    <path fill="darkgoldenrod" d="M65.29,54.13a25.5,25.5,0,0,1-10.4-2.67.83.83,0,0,0-1.11.18q-8.19,8.22-16.4,16.41c-.46.46-.21.7.12,1q4.44,4.43,8.86,8.86c2.11,2.11,2.12,4.5,0,6.61q-7,7-14.08,14.08a4.19,4.19,0,0,1-6.18,0q-4.56-4.51-9.07-9.08c-.45-.45-.72-.52-1.18,0a25.69,25.69,0,0,1-2.24,2.19,7.82,7.82,0,0,1-8,1.54A7.84,7.84,0,0,1,.18,87a7.67,7.67,0,0,1,2.13-7.21c4.53-4.6,9.12-9.15,13.69-13.72Q28.95,53.11,41.91,40.18a1.13,1.13,0,0,0,.29-1.52A27,27,0,0,1,47.59,7.89,26.49,26.49,0,0,1,62.27.37a27.07,27.07,0,0,1,14.32,51.9A27.66,27.66,0,0,1,65.29,54.13ZM77.05,27a10.4,10.4,0,1,0-10,10.48A10.37,10.37,0,0,0,77.05,27Z"/>
</svg>
